<?xml version="1.0" encoding="utf-8"?>
<!-- Generator: Adobe Illustrator 16.0.0, SVG Export Plug-In . SVG Version: 6.00 Build 0)  -->
<!DOCTYPE svg PUBLIC "-//W3C//DTD SVG 1.1//EN" "http://www.w3.org/Graphics/SVG/1.1/DTD/svg11.dtd">
<svg version="1.1" id="Layer_1" xmlns="http://www.w3.org/2000/svg" xmlns:xlink="http://www.w3.org/1999/xlink" x="0px" y="0px"
	 width="30px" height="21.2px" viewBox="0 0 30 21.2" enable-background="new 0 0 30 21.2" xml:space="preserve">
<g>
	<path d="M28.395,18.323c0-4.343,0-8.616,0-12.958c0.546,0,1.054,0,1.598,0c0-0.994,0-1.921,0-2.932c-2.779,0-5.518,0-8.316,0
		c0-0.85,0-1.618,0-2.405c-4.488,0-8.914,0-13.405,0c0,0.832,0,1.598,0,2.444c-2.805,0-5.544,0-8.264,0c0,1.012,0,1.938,0,2.934
		c0.565,0,1.071,0,1.577,0c0,4.343,0,8.614,0,12.954c-0.549,0-1.056,0-1.583,0c0,0.994,0,1.918,0,2.837c10.024,0,19.995,0,30,0
		c0-0.945,0-1.851,0-2.801C29.448,18.371,28.923,18.348,28.395,18.323z M6.574,6.202c-0.357,0.016-0.722,0.032-1.126,0.05
		C5.42,6.647,5.395,7.012,5.365,7.445C5.102,7.461,4.859,7.475,4.541,7.493C4.519,7.063,4.5,6.678,4.477,6.232
		c-0.405,0-0.771,0-1.175,0c0-0.309,0-0.555,0-0.838c0.391-0.019,0.756-0.035,1.16-0.054c0.027-0.399,0.052-0.765,0.081-1.198
		C4.807,4.129,5.05,4.116,5.347,4.101c0.036,0.432,0.068,0.815,0.104,1.237c0.375,0.019,0.721,0.035,1.124,0.055
		C6.574,5.646,6.574,5.888,6.574,6.202z M13.725,17.121c0-1.922,0-3.645,0-5.465c-1.133,0-2.14,0-3.358,0
		c1.984-2.27,3.853-4.408,5.851-6.693c0,1.879,0,3.588,0,5.379c1.135,0,2.176,0,3.429,0C17.628,12.651,15.744,14.809,13.725,17.121z
		 M26.68,6.192c-1.107,0-2.181,0-3.301,0c-0.012-0.261-0.021-0.487-0.034-0.771c1.13,0,2.22,0,3.335,0
		C26.68,5.679,26.68,5.927,26.68,6.192z"/>
	<path d="M6.134,0.003c-0.807,0-1.567,0-2.363,0c0,0.52,0,1.001,0,1.545c0.819,0,1.579,0,2.363,0
		C6.134,1.014,6.134,0.518,6.134,0.003z"/>
	<path d="M26.225,0.009c-0.835,0-1.599,0-2.393,0c0,0.529,0,1.012,0,1.522c0.815,0,1.598,0,2.393,0
		C26.225,1.013,26.225,0.547,26.225,0.009z"/>
	<path fill="#FFFFFF" d="M16.217,4.963c-1.998,2.285-3.867,4.424-5.851,6.693c1.218,0,2.225,0,3.358,0c0,1.82,0,3.543,0,5.465
		c2.019-2.313,3.903-4.47,5.921-6.779c-1.253,0-2.294,0-3.429,0C16.217,8.551,16.217,6.842,16.217,4.963z"/>
	<path fill="#FFFFFF" d="M5.347,4.101C5.05,4.116,4.807,4.129,4.542,4.143C4.514,4.576,4.489,4.941,4.462,5.341
		c-0.404,0.019-0.77,0.035-1.16,0.054c0,0.283,0,0.529,0,0.838c0.404,0,0.77,0,1.175,0C4.5,6.678,4.519,7.063,4.541,7.493
		c0.318-0.019,0.562-0.032,0.824-0.048c0.03-0.434,0.056-0.798,0.083-1.193c0.404-0.018,0.769-0.034,1.126-0.05
		c0-0.314,0-0.556,0-0.81c-0.403-0.02-0.748-0.036-1.124-0.055C5.415,4.916,5.383,4.532,5.347,4.101z"/>
	<path fill="#FFFFFF" d="M23.379,6.192c1.12,0,2.193,0,3.301,0c0-0.266,0-0.514,0-0.771c-1.115,0-2.205,0-3.335,0
		C23.357,5.705,23.367,5.932,23.379,6.192z"/>
</g>
</svg>
